# xmcd
#
# Track frame offsets: 
#        150
#        12282
#        26816
#        39372
#        50625
#        60256
#        75165
#        87832
#        99068
#        110886
#        121087
#        137087
#        148280
#        164480
#
# Disc length: 2312 seconds
#
# Revision: 0
# Processed by: cddbd v1.5PL3 Copyright (c) Steve Scherf et al.
# Submitted via: ExactAudioCopy v0.95a5
#
DISCID=af09060e
DTITLE=Al Batten And The Bluegrass Reunion Band -   Don't  Be Left On 
DTITLE=The Mountain
DYEAR=1900
DGENRE=Bluegrass
TTITLE0=Help Thy Brother
TTITLE1=How Can You Refuse Him Now
TTITLE2=Let Him Lead You
TTITLE3=Master Builder
TTITLE4=Going Home
TTITLE5=Don't Be Left On The Mountain
TTITLE6=Light At The River
TTITLE7=Camping In Cannan's Land
TTITLE8=It's Not God Thats Dead
TTITLE9=Home On High
TTITLE10=I'm Gonna Eat At The Welcome Table
TTITLE11=Way Down In My Soul
TTITLE12=The Eastern Gate
TTITLE13=Are You Washed In The Blood
EXTD=
EXTT0=
EXTT1=
EXTT2=
EXTT3=
EXTT4=
EXTT5=
EXTT6=
EXTT7=
EXTT8=
EXTT9=
EXTT10=
EXTT11=
EXTT12=
EXTT13=
PLAYORDER=
